# xmcd CD database file generated by Grip 2.91
# 
# Track frame offsets:
#       150
#       16292
#       38837
#       53407
#       65440
#       88490
#       101617
#       115292
#       136905
#       149525
#       171985
#       185420
#       203732
# 
# Disc length: 2940 seconds
# 
# Revision: 3
# Processed by: cddbd v1.4b41PL1 Copyright (c) Steve Scherf et al.
# Submitted via: Grip 2.91
# 
DISCID=b80b7a0d
DTITLE=Freakwater - Springtime
DYEAR=1900
DGENRE=
TTITLE0=Picture in My Mind
TTITLE1=Louisville Lip
TTITLE2=Twisted Wire
TTITLE3=Washed in the Blood
TTITLE4=Binding Twine
TTITLE5=One Big Union
TTITLE6=Harlan
TTITLE7=Jesus Year
TTITLE8=Scamp
TTITLE9=Lorraine
TTITLE10=Slowride
TTITLE11=Heaven
TTITLE12=Flat Hand
EXTD=
EXTT0=
EXTT1=
EXTT2=
EXTT3=
EXTT4=
EXTT5=
EXTT6=
EXTT7=
EXTT8=
EXTT9=
EXTT10=
EXTT11=
EXTT12=
PLAYORDER=
